<svg width="1024" height="1024" xmlns="http://www.w3.org/2000/svg">

    <g>
        <title>background</title>
        <rect fill="none" id="canvas_background" height="1026" width="1026" y="-1" x="-1"/>
    </g>
    <g>
        <title>Layer 1</title>
        <path stroke="null" id="svg_1" d="m596.75903,395.25751c203.12127,0 324.99404,223.4334 324.99404,223.4334s-121.87276,223.4334 -324.99404,223.4334s-324.99404,-223.4334 -324.99404,-223.4334s121.87276,-223.4334 324.99404,-223.4334zm0,40.62425c-142.99738,0 -243.82678,132.06945 -277.26054,182.80915c33.39314,50.69907 134.22254,182.80915 277.26054,182.80915c142.99738,0 243.82678,-132.06945 277.26054,-182.80915c-33.39314,-50.69907 -134.22254,-182.80915 -277.26054,-182.80915zm0,40.62425a142.18489,142.18489 0 1 1 0,284.36978a142.18489,142.18489 0 0 1 0,-284.36978zm0,40.62425a101.68251,101.68251 0 0 0 -101.56064,101.56064c0,55.98022 45.53979,101.56064 101.56064,101.56064s101.56064,-45.58041 101.56064,-101.56064s-45.53979,-101.56064 -101.56064,-101.56064z" fill="currentColor"/>
        <rect x="-6.00032" stroke="" 高度="50" id="svg_3" height="54.00075" width="1630.0226" y="204.29137" stroke-width="1.5" fill="currentColor"/>
        <rect stroke="" 宽度="50" id="svg_5" height="1210.01674" width="54.00075" y="0.57153" x="150.86094" stroke-opacity="null" stroke-width="1.5" fill="currentColor"/>
    </g>
</svg>