<svg t="1655724646779" class="icon" viewBox="0 0 1024 1024" version="1.1" xmlns="http://www.w3.org/2000/svg" p-id="17010" width="200" height="200"><path d="M51.2 307.2m51.2 0l102.4 0q51.2 0 51.2 51.2l0 460.8q0 51.2-51.2 51.2l-102.4 0q-51.2 0-51.2-51.2l0-460.8q0-51.2 51.2-51.2Z" p-id="17011"></path><path d="M409.6 51.2m51.2 0l102.4 0q51.2 0 51.2 51.2l0 716.8q0 51.2-51.2 51.2l-102.4 0q-51.2 0-51.2-51.2l0-716.8q0-51.2 51.2-51.2Z" p-id="17012"></path><path d="M768 204.8m51.2 0l102.4 0q51.2 0 51.2 51.2l0 563.2q0 51.2-51.2 51.2l-102.4 0q-51.2 0-51.2-51.2l0-563.2q0-51.2 51.2-51.2Z" p-id="17013"></path></svg>